<?xml version="1.0" encoding="iso-8859-1"?>
<!-- Uploaded to: SVG Repo, www.svgrepo.com, Generator: SVG Repo Mixer Tools -->
<!DOCTYPE svg PUBLIC "-//W3C//DTD SVG 1.1//EN" "http://www.w3.org/Graphics/SVG/1.1/DTD/svg11.dtd">
<svg version="1.1" id="Capa_1" xmlns="http://www.w3.org/2000/svg" xmlns:xlink="http://www.w3.org/1999/xlink" 
	 viewBox="0 0 478 478" xml:space="preserve">
<g>
	<path d="M406.919,141.307C361.986,115.959,302.351,102,239,102s-122.985,13.959-167.919,39.307C25.244,167.163,0,201.858,0,239
		s25.244,71.836,71.081,97.693C116.015,362.04,175.65,376,239,376c63.351,0,122.985-13.96,167.92-39.307
		C452.756,310.836,478,276.142,478,239S452.756,167.163,406.919,141.307z M402.006,327.983C358.547,352.499,300.657,366,239,366
		c-61.657,0-119.547-13.501-163.006-38.017C33.437,303.977,10,272.375,10,239c0-33.376,23.437-64.978,65.994-88.983
		C119.453,125.501,177.343,112,239,112s119.547,13.501,163.006,38.017C444.563,174.022,468,205.624,468,239
		C468,272.375,444.563,303.977,402.006,327.983z"/>
	<path d="M147.875,287.91c-10.414-3.495-20.132-7.603-28.884-12.206c-2.444-1.287-5.467-0.348-6.753,2.097
		c-1.285,2.444-0.346,5.468,2.098,6.753c9.225,4.853,19.438,9.171,30.357,12.837c0.528,0.177,1.064,0.261,1.592,0.261
		c2.089,0,4.038-1.319,4.74-3.41C151.902,291.624,150.493,288.789,147.875,287.91z"/>
	<path d="M236.546,301.864c-25.764-0.192-50.444-3.35-73.354-9.383c-2.668-0.704-5.405,0.891-6.108,3.562s0.891,5.405,3.562,6.108
		c23.717,6.246,49.229,9.514,75.826,9.713c0.013,0,0.025,0,0.039,0c2.744,0,4.979-2.214,4.999-4.963
		C241.529,304.141,239.307,301.885,236.546,301.864z"/>
	<path d="M370.58,268.968c-26.174,16.882-62.948,28.137-103.547,31.692c-2.751,0.24-4.786,2.666-4.545,5.417
		c0.228,2.603,2.411,4.563,4.975,4.563c0.146,0,0.294-0.006,0.442-0.02c42.191-3.694,80.58-15.503,108.095-33.249
		c2.321-1.497,2.989-4.592,1.492-6.912C375.995,268.14,372.899,267.472,370.58,268.968z"/>
	<path d="M364.385,144.424c-33.575-17.862-78.104-27.7-125.385-27.7s-91.811,9.838-125.385,27.7
		C79.041,162.818,60,187.634,60,214.298v26.054c0,26.665,19.041,51.479,53.614,69.873c33.573,17.86,78.103,27.696,125.386,27.696
		s91.813-9.836,125.386-27.696C398.959,291.831,418,267.017,418,240.352v-26.054C418,187.634,398.959,162.818,364.385,144.424z
		 M401.152,238.801c-1.371,2.397-0.539,5.452,1.858,6.823c1.484,0.848,3.219,0.849,4.651,0.16
		c-2.501,20.785-19.305,40.361-47.972,55.611c-32.153,17.105-75.015,26.525-120.689,26.525s-88.536-9.42-120.689-26.525
		c-27.775-14.775-44.412-33.611-47.697-53.673c1.273,1.926,2.646,3.835,4.146,5.722c0.987,1.242,2.445,1.889,3.917,1.889
		c1.09,0,2.188-0.354,3.108-1.086c2.162-1.719,2.521-4.863,0.803-7.025C74.235,236.714,70,225.637,70,214.298
		c0-22.791,17.158-44.471,48.312-61.046c32.154-17.106,75.016-26.528,120.688-26.528c45.673,0,88.534,9.422,120.688,26.528
		C390.842,169.827,408,191.507,408,214.298C408,222.61,405.696,230.854,401.152,238.801z"/>
	<path d="M276.878,250.88l38.001-29.171c1.886-1.449,3.349-0.261,3.891,0.318c0.542,0.577,1.632,2.114,0.066,3.902l-12.018,13.725
		c-4.491,5.13-4.406,12.218,0.208,17.237c2.604,2.832,5.984,4.283,9.423,4.283c2.655,0,5.344-0.865,7.735-2.627l22.653-16.691
		c1.892-1.395,3.332-0.205,3.862,0.371c0.531,0.576,1.598,2.108,0.051,3.88c-1.816,2.08-1.601,5.239,0.479,7.055
		c2.081,1.817,5.239,1.603,7.055-0.479c4.479-5.133,4.386-12.218-0.229-17.229c-4.614-5.012-11.667-5.69-17.151-1.648
		l-22.653,16.691c-1.895,1.394-3.334,0.204-3.864-0.373c-0.531-0.577-1.598-2.111-0.047-3.882l12.018-13.725
		c4.464-5.098,4.34-12.386-0.294-17.33c-4.634-4.942-11.899-5.536-17.275-1.41l-38.002,29.171c-1.872,1.437-3.333,0.268-3.876-0.303
		c-0.542-0.569-1.637-2.089-0.107-3.887l23.568-27.704c4.403-5.177,4.165-12.475-0.568-17.352c-4.733-4.878-12.02-5.335-17.325-1.09
		l-32.794,26.234c-1.834,1.468-3.258,0.447-3.945-0.29c-0.686-0.737-1.599-2.232-0.003-3.954l21.504-23.213
		c4.63-4.998,4.746-12.083,0.281-17.229c-4.465-5.147-11.495-6.031-17.096-2.154l-60.145,41.639
		c-1.97,1.362-3.372,0.087-3.884-0.525c-0.512-0.611-1.52-2.218,0.169-3.914l21.262-21.367c4.762-4.785,5.116-12.051,0.842-17.276
		c-4.274-5.225-11.466-6.319-17.1-2.6l-35.098,23.167c-1.991,1.313-3.366,0.018-3.864-0.602c-0.499-0.618-1.474-2.237,0.232-3.904
		l12.821-12.519c4.741-4.63,5.3-11.584,1.359-16.911c-3.941-5.325-10.753-6.829-16.568-3.647l-15.599,8.529
		c-2.423,1.324-3.313,4.362-1.988,6.785c1.325,2.424,4.361,3.315,6.786,1.988l15.599-8.529c2.008-1.097,3.278,0.209,3.731,0.822
		c0.453,0.612,1.331,2.21-0.306,3.809l-12.821,12.519c-4.865,4.751-5.298,12.041-1.031,17.335
		c4.268,5.295,11.484,6.415,17.158,2.671l35.098-23.167c1.975-1.303,3.351-0.025,3.851,0.586c0.5,0.61,1.481,2.212-0.19,3.89
		l-21.262,21.367c-4.815,4.839-5.131,12.15-0.751,17.386c4.379,5.234,11.631,6.215,17.246,2.331l60.145-41.639
		c1.932-1.339,3.336-0.107,3.85,0.484c0.514,0.592,1.535,2.155-0.063,3.88l-21.504,23.212c-5.345,5.771-4.038,13.202,0.017,17.562
		c4.053,4.357,11.371,6.2,17.514,1.288l32.794-26.234c1.862-1.49,3.349-0.324,3.901,0.245c0.553,0.57,1.672,2.092,0.127,3.908
		l-23.568,27.704c-4.43,5.208-4.233,12.305,0.479,17.258C264.378,254.49,271.456,255.044,276.878,250.88z"/>
</g>
</svg>