<?xml version="1.0" encoding="utf-8"?>

<!DOCTYPE svg PUBLIC "-//W3C//DTD SVG 1.1//EN" "http://www.w3.org/Graphics/SVG/1.1/DTD/svg11.dtd">
<!-- Uploaded to: SVG Repo, www.svgrepo.com, Generator: SVG Repo Mixer Tools -->
<svg version="1.1" id="_x32_" xmlns="http://www.w3.org/2000/svg" xmlns:xlink="http://www.w3.org/1999/xlink" 
	 viewBox="0 0 512 512"  xml:space="preserve">
<style type="text/css">
	.st0{fill:#000000;}
</style>
<g>
	<path class="st0" d="M407.148,91.258H104.851L0,293.245v127.497h512V293.245L407.148,91.258z M115.57,111.337h280.858
		l88.017,176.892h-30.513c-9.96-23.656-27.232-43.494-48.957-56.708c-10.996-55.778-60.15-97.86-119.182-97.86
		c-41.358,0-77.861,20.643-99.782,52.202c-62.815,0.644-115.375,43.968-130.028,102.366H27.545L115.57,111.337z M370.842,255.133
		c-3.808-1.404-7.787-2.486-11.836-3.335c-5.508-1.082-11.167-1.681-16.996-1.681c-12.445,0-24.29,2.692-34.974,7.51
		c-3.692,1.645-7.224,3.568-10.594,5.74c-7.072,4.461-13.456,9.96-18.882,16.262c-2.405,2.692-4.569,5.588-6.58,8.601h-27.705
		c3.531-7.348,7.822-14.224,12.883-20.562c2.494-3.219,5.221-6.312,8.108-9.2c0.125-0.116,0.251-0.278,0.367-0.402
		c5.578-5.543,11.729-10.514,18.39-14.734c3.415-2.253,6.99-4.255,10.647-6.07c14.572-7.188,30.996-11.238,48.34-11.238
		c3.818,0,7.59,0.197,11.282,0.554c4.667,0.483,9.244,1.251,13.696,2.334c9.558,2.208,18.641,5.704,27.072,10.282
		c4.497,2.404,8.832,5.185,12.928,8.27c4.38,3.174,8.555,6.75,12.408,10.603c8.717,8.752,15.985,18.918,21.358,30.164h-27.705
		C402.974,273.085,388.195,261.355,370.842,255.133z M397.993,288.229h-79.148h-12.489h-20.321c1.323-1.609,2.736-3.138,4.175-4.586
		c3.46-3.45,7.269-6.58,11.363-9.316c3.38-2.208,6.956-4.174,10.684-5.82c9.074-4.095,19.159-6.348,29.753-6.348
		c20.205,0,38.514,8.198,51.809,21.484C395.258,285.091,396.67,286.62,397.993,288.229z M187.415,258.146
		c-22.735,0-42.69,12.052-53.856,30.084h-26.946c4.426-10.773,10.97-20.446,19.079-28.555c10.88-10.89,24.613-18.954,39.99-22.896
		h0.045c4.094-1.037,8.27-1.797,12.57-2.244c2.968-0.322,6.026-0.483,9.119-0.483c5.257,0,10.397,0.483,15.378,1.368
		c4.014,0.68,7.912,1.681,11.684,2.933c12.696,4.13,24.095,11.121,33.491,20.24c-5.222,6.303-9.754,13.205-13.572,20.518
		C222.828,266.219,206.046,258.146,187.415,258.146z M226.368,288.229h-77.906c0.876-1.046,1.806-2.056,2.771-3.013
		c9.271-9.28,22.047-15.019,36.182-15.019c14.126,0,26.902,5.739,36.173,15.019C224.552,286.173,225.482,287.183,226.368,288.229z
		 M285.794,169.798c-22.127,0-42.324,8.476-57.504,22.368c-8.877-2.852-18.113-4.738-27.67-5.659
		c2.414-3.048,5.024-5.982,7.796-8.753c19.838-19.803,47.143-32.051,77.378-32.051c30.245,0,57.548,12.248,77.378,32.051
		c12.775,12.766,22.414,28.672,27.59,46.463c-9.271-4.139-19.15-7.072-29.431-8.716C347.034,188.358,318.56,169.798,285.794,169.798
		z M346.471,214.097c-1.484-0.08-2.968-0.124-4.461-0.124c-20.357,0-39.587,5.024-56.458,13.892
		c-12.489-13.044-27.51-23.611-44.29-30.879c12.365-9.513,27.787-15.136,44.532-15.136c20.205,0,38.514,8.189,51.809,21.484
		C340.892,206.623,343.861,210.243,346.471,214.097z M219.09,202.009c4.22,1.118,8.358,2.45,12.373,4.014
		c16.379,6.222,31.04,15.86,43.253,28.063c0.036,0.045,0.072,0.09,0.116,0.126c-6.786,4.497-13.088,9.682-18.792,15.422
		c-10.639-10.237-23.531-18.113-37.871-22.735h-0.036c-3.818-1.279-7.716-2.279-11.73-3.048c-6.142-1.208-12.489-1.842-18.989-1.842
		c-2.011,0-4.059,0.072-6.026,0.197c-4.416,0.242-8.753,0.805-12.972,1.645c-34.732,6.705-63.082,31.648-74.651,64.378H68.464
		c5.749-20.768,16.826-39.319,31.649-54.142c20.392-20.392,47.785-33.687,78.343-35.85c2.968-0.205,5.945-0.321,8.958-0.321
		c1.681,0,3.406,0.036,5.052,0.116C201.665,198.398,210.544,199.757,219.09,202.009z M491.92,400.662H20.08v-92.361h471.84V400.662z
		"/>
</g>
</svg>